# xmcd CD database file generated by OrangeCD 4.2
#
# Track frame offsets:
#	150
#	17132
#	30360
#	47847
#	63640
#	81817
#	93967
#	105677
#	118035
#	130435
#	142930
#
# Disc length: 2089 seconds
#
# Revision: 2
# Processed by: cddbd v1.4PL0 Copyright (c) Steve Scherf et al.
# Submitted via: OrangeCD 4.2
#
DISCID=8f08270b
DTITLE=Otis Spann - The Blues Never Die!
DYEAR=1964
DGENRE=Blues
TTITLE0=The Blues Never Die
TTITLE1=I Got a Feeling
TTITLE2=One More Mile to Go
TTITLE3=Feelin' Good
TTITLE4=After Awhile
TTITLE5=Dust My Broom
TTITLE6=Straighten Up, Baby
TTITLE7=Come On
TTITLE8=Must Have Been the Devil
TTITLE9=Lightnin'
TTITLE10=I'm Ready
EXTD=
EXTT0=
EXTT1=
EXTT2=
EXTT3=
EXTT4=
EXTT5=
EXTT6=
EXTT7=
EXTT8=
EXTT9=
EXTT10=
PLAYORDER=
